<?xml version="1.0" encoding="utf-8"?>
<!-- Generator: Adobe Illustrator 21.0.0, SVG Export Plug-In . SVG Version: 6.00 Build 0)  -->
<svg version="1.1" id="Layer_1" xmlns="http://www.w3.org/2000/svg" xmlns:xlink="http://www.w3.org/1999/xlink" x="0px" y="0px"
	 viewBox="0 0 43 42" style="enable-background:new 0 0 43 42;" xml:space="preserve">
<style type="text/css">
	.st0{fill-rule:evenodd;clip-rule:evenodd;fill:#FD8E2C;}
	.st1{fill:#FFFFFF;}
	.st2{fill:#0085B2;}
	.st3{fill:#50ABF1;}
	.st4{fill:#507299;}
	.st5{fill:#3B5998;}
	.st6{fill:#CD0606;}
</style>
<g>
	<g>
		<path class="st2" d="M0.6,0v42h42V0H0.6z M17.1,29h-4.3V16.2h4.3V29z M15,14.4L15,14.4c-1.5,0-2.4-1-2.4-2.2c0-1.3,1-2.2,2.4-2.2
			c1.5,0,2.4,1,2.4,2.2C17.4,13.4,16.5,14.4,15,14.4z M32.6,29h-4.3v-6.9c0-1.7-0.6-2.9-2.2-2.9c-1.2,0-1.9,0.8-2.2,1.6
			c-0.1,0.3-0.1,0.7-0.1,1V29h-4.3c0,0,0.1-11.6,0-12.8h4.3V18c0.6-0.9,1.6-2.1,3.9-2.1c2.8,0,4.9,1.8,4.9,5.8V29z M23.8,18L23.8,18
			C23.8,18,23.8,18,23.8,18L23.8,18z"/>
	</g>
</g>
</svg>
