<?xml version="1.0" encoding="utf-8"?>
<!-- Generator: Adobe Illustrator 21.0.0, SVG Export Plug-In . SVG Version: 6.00 Build 0)  -->
<svg version="1.1" id="Layer_1" xmlns="http://www.w3.org/2000/svg" xmlns:xlink="http://www.w3.org/1999/xlink" x="0px" y="0px"
	 viewBox="0 0 43 42" style="enable-background:new 0 0 43 42;" xml:space="preserve">
<style type="text/css">
	.st0{fill-rule:evenodd;clip-rule:evenodd;fill:#FD8E2C;}
	.st1{fill:#FFFFFF;}
	.st2{fill:#0085B2;}
	.st3{fill:#50ABF1;}
	.st4{fill:#507299;}
	.st5{fill:#3B5998;}
	.st6{fill:#CD0606;}
</style>
<g>
	<path class="st0" d="M0.6,0h42v42h-42V0z"/>
	<g>
		<g>
			<path class="st1" d="M21.6,19.2c1,0,1.8-0.8,1.8-1.8c0-1-0.8-1.8-1.8-1.8c-1,0-1.8,0.8-1.8,1.8C19.8,18.4,20.6,19.2,21.6,19.2z
				 M21.6,10.5c-5.8,0-10.5,4.7-10.5,10.5c0,5.8,4.7,10.5,10.5,10.5c5.8,0,10.5-4.7,10.5-10.5C32.1,15.2,27.4,10.5,21.6,10.5z
				 M21.6,13.7c2,0,3.7,1.7,3.7,3.7c0,2-1.7,3.7-3.7,3.7c-2,0-3.7-1.7-3.7-3.7C17.9,15.3,19.6,13.7,21.6,13.7z M25.8,22.5
				c-0.5,0.5-1,0.8-1.6,1c-0.6,0.2-1.2,0.3-1.8,0.4c0.1,0.1,0.1,0.2,0.2,0.2c0.8,0.8,1.7,1.7,2.5,2.5c0.3,0.3,0.3,0.6,0.2,1
				c-0.2,0.4-0.6,0.6-0.9,0.6c-0.2,0-0.4-0.1-0.6-0.3c-0.6-0.6-1.3-1.3-1.9-1.9c-0.2-0.2-0.3-0.2-0.4,0c-0.6,0.7-1.3,1.3-1.9,1.9
				c-0.3,0.3-0.6,0.3-1,0.2c-0.4-0.2-0.6-0.5-0.6-0.9c0-0.3,0.1-0.4,0.3-0.6c0.8-0.8,1.7-1.7,2.5-2.5c0.1-0.1,0.1-0.1,0.2-0.2
				c-1.1-0.1-2.2-0.4-3-1.1c-0.1-0.1-0.2-0.2-0.3-0.3c-0.4-0.4-0.4-0.8-0.1-1.2c0.3-0.4,0.7-0.5,1.1-0.3c0.1,0,0.2,0.1,0.3,0.1
				c1.6,1.1,3.9,1.2,5.5,0.1c0.2-0.1,0.3-0.2,0.5-0.3c0.4-0.1,0.8,0,1,0.4C26.1,21.9,26.1,22.2,25.8,22.5z"/>
		</g>
	</g>
</g>
</svg>
