<?xml version="1.0" encoding="utf-8"?>
<!-- Generator: Adobe Illustrator 21.0.0, SVG Export Plug-In . SVG Version: 6.00 Build 0)  -->
<svg version="1.1" id="Layer_1" xmlns="http://www.w3.org/2000/svg" xmlns:xlink="http://www.w3.org/1999/xlink" x="0px" y="0px"
	 viewBox="0 0 73 99" style="enable-background:new 0 0 73 99;" xml:space="preserve">
<style type="text/css">
	.st0{fill-rule:evenodd;clip-rule:evenodd;fill:#FD8E2C;}
	.st1{fill:#FFFFFF;}
	.st2{fill:#0085B2;}
	.st3{fill:#50ABF1;}
	.st4{fill:#507299;}
	.st5{fill:#3B5998;}
	.st6{fill:#CD0606;}
</style>
<path class="st6" d="M36.5,0c-19.8,0-36,16.2-36,36.1c0,5.2,1.1,10.1,3.1,14.7c9,19.7,26.3,40.6,31.3,46.5c0.4,0.4,0.9,0.7,1.5,0.7
	c0.6,0,1.1-0.3,1.5-0.7c5.1-5.9,22.3-26.8,31.3-46.5c2.1-4.6,3.1-9.5,3.1-14.7C72.5,16.2,56.3,0,36.5,0z M36.5,54.8
	c-10.3,0-18.7-8.4-18.7-18.7c0-10.3,8.4-18.7,18.7-18.7c10.3,0,18.7,8.4,18.7,18.7C55.2,46.4,46.8,54.8,36.5,54.8z"/>
</svg>
