<?xml version="1.0" encoding="utf-8"?>
<!-- Generator: Adobe Illustrator 21.0.0, SVG Export Plug-In . SVG Version: 6.00 Build 0)  -->
<svg version="1.1" id="Layer_1" xmlns="http://www.w3.org/2000/svg" xmlns:xlink="http://www.w3.org/1999/xlink" x="0px" y="0px"
	 viewBox="0 0 21 21" style="enable-background:new 0 0 21 21;" xml:space="preserve">
<style type="text/css">
	.st0{fill:none;}
	.st1{fill:#FFFFFF;}
</style>
<g>
	<g>
		<path class="st1" d="M19.4,0.2H1.6C1,0.2,0.5,0.7,0.5,1.3v17.9c0,0.6,0.5,1.1,1.1,1.1h17.9c0.6,0,1.1-0.5,1.1-1.1V1.3
			C20.5,0.7,20,0.2,19.4,0.2z M14.5,5h-2c-0.6,0-1,0.4-1,0.9v1.9h3v2.8h-3v6.6h-3v-6.6h-2V7.8h2V5.5c0-1.8,1.6-3.3,3.5-3.3h2.5V5z"
			/>
	</g>
</g>
</svg>
