<?xml version="1.0" encoding="utf-8"?>
<!-- Generator: Adobe Illustrator 21.0.0, SVG Export Plug-In . SVG Version: 6.00 Build 0)  -->
<svg version="1.1" id="Layer_1" xmlns="http://www.w3.org/2000/svg" xmlns:xlink="http://www.w3.org/1999/xlink" x="0px" y="0px"
	 viewBox="0 0 21 21" style="enable-background:new 0 0 21 21;" xml:space="preserve">
<style type="text/css">
	.st0{fill:none;}
	.st1{fill:#FFFFFF;}
</style>
<g>
	<g>
		<path class="st1" d="M19.9,1H2.1C1.5,1,1,1.5,1,2.1v17.9C1,20.5,1.5,21,2.1,21h17.9c0.6,0,1.1-0.5,1.1-1.1V2.1
			C21,1.5,20.5,1,19.9,1z M11,7c2.2,0,4,1.8,4,4c0,2.2-1.8,4-4,4c-2.2,0-4-1.8-4-4C7,8.8,8.8,7,11,7z M19,18.5
			c0,0.3-0.2,0.5-0.5,0.5h-15C3.2,19,3,18.8,3,18.5V10h2.1C5,10.3,5,10.7,5,11c0,3.3,2.7,6,6,6s6-2.7,6-6c0-0.3,0-0.7-0.1-1H19V18.5
			z M19,5.5C19,5.8,18.8,6,18.5,6h-2C16.2,6,16,5.8,16,5.5v-2C16,3.2,16.2,3,16.5,3h2C18.8,3,19,3.2,19,3.5V5.5z"/>
	</g>
</g>
</svg>
