<?xml version="1.0" encoding="utf-8"?>
<!-- Generator: Adobe Illustrator 21.0.0, SVG Export Plug-In . SVG Version: 6.00 Build 0)  -->
<svg version="1.1" id="Layer_1" xmlns="http://www.w3.org/2000/svg" xmlns:xlink="http://www.w3.org/1999/xlink" x="0px" y="0px"
	 viewBox="0 0 21 21" style="enable-background:new 0 0 21 21;" xml:space="preserve">
<style type="text/css">
	.st0{fill:none;}
	.st1{fill:#FFFFFF;}
</style>
<g>
	<g>
		<path class="st1" d="M14.4,6.8C13.3,6.2,12,6,10.7,6C9.3,6,7.8,6.2,6.5,6.7c1,0.1,1.9,0.4,2.7,1.1c0.8,0.7,1.2,1.5,1.4,2.5
			c0.2-1,0.6-1.8,1.3-2.5C12.6,7.2,13.5,6.8,14.4,6.8z M14.7,9.6c-0.7,0-1.4,0.6-1.4,1.3c0,0.7,0.6,1.4,1.4,1.4
			c0.7,0,1.4-0.6,1.4-1.4C16,10.2,15.4,9.6,14.7,9.6z M14.7,11.6c-0.4,0-0.7-0.3-0.7-0.7c0-0.4,0.3-0.7,0.7-0.7
			c0.4,0,0.7,0.3,0.7,0.7C15.3,11.3,15,11.6,14.7,11.6z M6.3,7.6C4.5,7.6,3,9.1,3,11c0,1.8,1.5,3.3,3.4,3.3c1.8,0,3.3-1.5,3.3-3.3
			C9.7,9.1,8.2,7.6,6.3,7.6z M6.4,13c-1.2,0.1-2.2-0.9-2.2-2.1c0-1.2,1-2.1,2.1-2.1c1.1,0,2.1,0.9,2.1,2.1C8.3,12.1,7.4,12.9,6.4,13
			z M6.3,9.6c-0.7,0-1.3,0.6-1.3,1.4c0,0.7,0.6,1.4,1.4,1.4c0.7,0,1.4-0.6,1.3-1.4C7.6,10.2,7,9.6,6.3,9.6z M6.3,11.6
			c-0.4,0-0.7-0.3-0.7-0.7c0-0.4,0.3-0.7,0.7-0.7c0.4,0,0.7,0.3,0.7,0.7C7,11.3,6.7,11.6,6.3,11.6z M14.6,7.6
			c-1.8,0-3.3,1.5-3.3,3.3c0,1.8,1.5,3.4,3.3,3.3c1.8,0,3.3-1.5,3.3-3.3C18,9,16.4,7.6,14.6,7.6z M14.8,13c-1.2,0-2.2-0.9-2.2-2.1
			c0-1.2,1-2.1,2.1-2.1c1.1,0,2.1,0.9,2.1,2.1C16.7,12.1,15.8,12.9,14.8,13z M19.4,0.2H1.6C1,0.2,0.5,0.7,0.5,1.3v17.9
			c0,0.6,0.5,1.1,1.1,1.1h17.9c0.6,0,1.1-0.5,1.1-1.1V1.3C20.5,0.7,20,0.2,19.4,0.2z M18.7,12c-0.3,1.1-0.9,1.9-1.8,2.5
			c-0.7,0.4-1.4,0.6-2.2,0.6c-0.3,0-0.7,0-1-0.1c-0.8-0.2-1.5-0.6-2.1-1.2c-0.1-0.1-0.1-0.2-0.2-0.3c-0.3,0.4-0.6,0.9-0.9,1.3
			c-0.3-0.4-0.6-0.9-0.9-1.3c0,0,0,0,0,0c0,0,0,0,0,0C8.9,14.4,8,14.9,7,15.1c-0.6,0.1-1.2,0.1-1.7-0.1c-0.8-0.2-1.5-0.6-2-1.3
			c-0.5-0.6-0.9-1.3-1-2.1c-0.1-0.8,0-1.5,0.1-1.7c0.1-0.5,0.3-1,0.7-1.4c0,0,0-0.1,0-0.1C2.8,7.9,2.6,7.5,2.4,7.1
			C2.3,7,2.2,6.9,2.1,6.8c0,0,0,0,0,0c0,0,0,0,0,0c0.8,0,1.7,0,2.5,0c0,0,0.1,0,0.1,0C5.4,6.4,6,6.1,6.7,5.9c0.5-0.2,1-0.3,1.5-0.4
			c0.5-0.1,1-0.2,1.5-0.2c1.2-0.1,2.1,0,2.8,0.1c0.5,0.1,0.9,0.2,1.4,0.3c0.8,0.2,1.5,0.6,2.2,1c0,0,0.1,0,0.2,0c0.8,0,1.6,0,2.5,0
			c0.1,0,0.1,0,0.2,0c0,0,0,0,0,0c0,0.1-0.1,0.1-0.1,0.2c-0.3,0.4-0.5,0.9-0.7,1.4c0,0.1,0,0.1,0,0.1C18.8,9.6,19,10.7,18.7,12z"/>
	</g>
</g>
</svg>
