<?xml version="1.0" encoding="utf-8"?>
<!-- Generator: Adobe Illustrator 21.0.0, SVG Export Plug-In . SVG Version: 6.00 Build 0)  -->
<svg version="1.1" id="Layer_1" xmlns="http://www.w3.org/2000/svg" xmlns:xlink="http://www.w3.org/1999/xlink" x="0px" y="0px"
	 viewBox="0 0 21 21" style="enable-background:new 0 0 21 21;" xml:space="preserve">
<style type="text/css">
	.st0{fill:none;}
	.st1{fill:#FFFFFF;}
</style>
<path class="st1" d="M19.4,0.2H1.6C1,0.2,0.5,0.7,0.5,1.3v17.9c0,0.6,0.5,1.1,1.1,1.1h17.9c0.6,0,1.1-0.5,1.1-1.1V1.3
	C20.5,0.7,20,0.2,19.4,0.2z M16.4,11.5c0.5,0.5,1.1,1,1.6,1.6c0.2,0.3,0.4,0.5,0.6,0.8c0.2,0.4,0,0.9-0.4,0.9l-2.4,0
	c-0.6,0.1-1.1-0.2-1.5-0.6c-0.3-0.3-0.6-0.7-1-1c-0.1-0.1-0.3-0.3-0.4-0.4c-0.3-0.2-0.6-0.1-0.8,0.2c-0.2,0.3-0.2,0.7-0.3,1.1
	c0,0.6-0.2,0.7-0.8,0.7c-1.2,0.1-2.4-0.1-3.4-0.7c-0.9-0.5-1.7-1.3-2.3-2.2c-1.2-1.7-2.2-3.5-3-5.4C2.2,6.1,2.3,5.9,2.8,5.9
	c0.8,0,1.6,0,2.3,0c0.3,0,0.5,0.2,0.7,0.5c0.4,1,0.9,2,1.6,2.9C7.5,9.5,7.7,9.8,8,10c0.3,0.2,0.5,0.1,0.6-0.2
	c0.1-0.2,0.1-0.4,0.1-0.6c0.1-0.7,0.1-1.4,0-2.2C8.6,6.5,8.4,6.3,7.9,6.2C7.7,6.1,7.7,6,7.8,5.9C8,5.7,8.2,5.5,8.6,5.5h2.7
	c0.4,0.1,0.5,0.3,0.6,0.7l0,3c0,0.2,0.1,0.7,0.4,0.8c0.2,0.1,0.4-0.1,0.5-0.3c0.6-0.7,1.1-1.5,1.5-2.3c0.2-0.4,0.3-0.8,0.5-1.1
	c0.1-0.3,0.3-0.4,0.6-0.4l2.6,0c0.1,0,0.2,0,0.2,0c0.4,0.1,0.6,0.3,0.4,0.7c-0.2,0.7-0.6,1.2-1,1.8c-0.4,0.6-0.9,1.2-1.3,1.8
	C15.9,10.7,15.9,11,16.4,11.5z"/>
</svg>
