<?xml version="1.0" encoding="utf-8"?>
<!-- Generator: Adobe Illustrator 21.0.0, SVG Export Plug-In . SVG Version: 6.00 Build 0)  -->
<svg version="1.1" id="Layer_1" xmlns="http://www.w3.org/2000/svg" xmlns:xlink="http://www.w3.org/1999/xlink" x="0px" y="0px"
	 viewBox="0 0 75 71" style="enable-background:new 0 0 75 71;" xml:space="preserve">
<style type="text/css">
	.st0{fill:none;}
	.st1{fill:#FFFFFF;}
</style>
<g>
	<path class="st0" d="M37,1c-5.8,0-11.5,1.5-16.5,4.2C19.8,5.6,19.6,6.4,20,7c0.4,0.7,1.2,0.9,1.9,0.5c4.6-2.5,9.9-3.9,15.2-3.9
		c17.5,0,31.8,14.3,31.8,31.8C68.8,53,54.5,67.3,37,67.3C19.5,67.3,5.2,53,5.2,35.5c0-8.6,3.4-16.6,9.4-22.6c0.5-0.5,0.5-1.4,0-1.9
		c-0.5-0.5-1.4-0.5-1.9,0C6.1,17.5,2.5,26.2,2.5,35.5C2.5,54.5,18,70,37,70c19,0,34.5-15.5,34.5-34.5C71.5,16.5,56,1,37,1z M25,55.2
		c0.3,0.4,0.7,0.6,1.1,0.6c0.3,0,0.5-0.1,0.8-0.2l26.9-18.9c0.4-0.3,0.6-0.7,0.6-1.1c0-0.4-0.2-0.9-0.6-1.1L26.9,15.5
		c-0.4-0.3-1-0.3-1.4-0.1c-0.5,0.2-0.7,0.7-0.7,1.2v25.9c0,0.8,0.6,1.4,1.4,1.4c0.8,0,1.4-0.6,1.4-1.4V19.2l23.2,16.3L25.3,53.3
		C24.7,53.7,24.5,54.6,25,55.2z"/>
</g>
</svg>
